# xmcd CD database file
#
# Track frame offsets:
#	150
#	13069
#	25998
#	39993
#	52120
#
# Disc length: 870 seconds
#
# Revision: 2
# Processed by: cddbd v1.4PL0 Copyright (c) Steve Scherf et al.
# Submitted via: CDex 1.50beta8
#
DISCID=39036405
DTITLE=Stevie Wonder - Grandes Mitos
DYEAR=1900
DGENRE=
TTITLE0=My Cherie Amour
TTITLE1=For Once In My Life
TTITLE2=Yester-me, Tester-you, Yesterday
TTITLE3=Signed, Sealed, Delivered I'm Yours
TTITLE4=Uptight (Everything's Alright)
EXTD=
EXTT0=
EXTT1=
EXTT2=
EXTT3=
EXTT4=
PLAYORDER=
